<svg id="Layer_1" enable-background="new 0 0 512 512" height="560" viewBox="0 0 512 512" width="1250" xmlns="http://www.w3.org/2000/svg"><g><path d="m455.711 327.967c11.94 12.012 18.358 27.98 18.358 43.649 0 33.904-29.34 61.811-67.106 65.592.433 2.864.742 5.759.742 8.726 0 36.489-33.965 66.066-75.852 66.066-31.194 0-57.989-16.401-69.64-39.837-1.195-2.4-3.698-3.606-6.212-3.606s-5.017 1.205-6.212 3.606c-3.554 7.149-8.52 13.65-14.598 19.234-13.815 12.681-33.368 20.603-55.043 20.603-41.887 0-75.852-29.577-75.852-66.066 0-2.967.309-5.862.742-8.726-37.766-3.781-67.106-31.689-67.106-65.592 0-15.669 6.418-31.637 18.358-43.649-32.39-7.52-56.29-33.131-56.29-63.707 0-17.647 7.84-35.562 24.075-49.48-9.066-8.777-14.598-20.377-14.598-33.11 0-26.847 24.539-48.656 55.135-49.47-4.883-7.304-7.726-15.783-7.726-24.848 0-27.362 25.476-49.552 56.887-49.552 2.946 0 6.645.309 9.601.701-.041-.536-.113-1.071-.103-1.617.546-30.658 30.195-56.454 65.406-56.877 18.502-.237 35.304 6.14 47.491 16.596 5.645 4.821 10.312 10.539 13.691 16.885 1.226 2.308 3.688 3.462 6.14 3.462s4.914-1.154 6.14-3.462c10.673-20.017 34.099-33.821 61.182-33.481 35.212.422 64.86 26.218 65.406 56.877.01.546-.062 1.082-.103 1.617 2.957-.392 6.655-.701 9.601-.701 31.41 0 56.887 22.19 56.887 49.552 0 9.066-2.843 17.544-7.726 24.848 30.596.814 55.135 22.623 55.135 49.47 0 12.733-5.532 24.333-14.598 33.11 16.237 13.918 24.077 31.833 24.077 49.48 0 30.576-23.9 56.187-56.289 63.707z" fill="#ff76b4"/><path d="m455.711 327.967c11.94 12.012 18.358 27.98 18.358 43.649 0 33.904-29.34 61.811-67.106 65.592.433 2.864.742 5.759.742 8.726 0 36.489-33.965 66.066-75.852 66.066-31.194 0-57.989-16.401-69.64-39.837-1.195-2.4-3.698-3.606-6.212-3.606s-5.017 1.205-6.212 3.606c-3.554 7.149-8.52 13.65-14.598 19.234-6.202-5.656-10.096-13.794-10.096-22.839 0-17.07 13.835-30.906 30.905-30.906 14.536 0 27.516 7.953 33.883 20.748 6.748 13.578 23.612 22.695 41.97 22.695 24.364 0 44.947-16.102 44.947-35.16 0-1.03-.124-2.369-.391-4.09-1.267-8.375.948-16.905 6.14-23.591 5.202-6.686 12.908-10.961 21.335-11.796 22.036-2.215 39.281-17.513 39.281-34.841 0-7.901-3.41-15.865-9.364-21.861-7.912-7.953-10.889-19.553-7.788-30.329s11.785-19.028 22.715-21.562c19.058-4.43 32.368-18.245 32.368-33.605 0-9.437-4.718-18.667-13.289-26.023-6.593-5.656-10.508-13.835-10.765-22.52-.268-8.695 3.142-17.091 9.385-23.138 2.369-2.287 5.192-6.047 5.192-10.91 0-9.704-11.476-18.214-25.054-18.574-11.25-.299-21.448-6.686-26.62-16.689-5.182-9.993-4.512-22.005 1.741-31.369 1.669-2.503 2.524-5.089 2.524-7.685 0-10.106-11.899-18.646-25.981-18.646-1.154 0-3.431.155-5.553.433-9.251 1.226-18.564-1.803-25.332-8.231-6.655-6.325-10.158-15.288-9.55-24.446-1.02-14.454-18.945-25.363-34.841-25.559h-.556c-14.289 0-27.496 6.841-32.986 17.122-8.025 15.061-26.743 20.758-41.805 12.733-15.061-8.036-20.768-26.754-12.733-41.815.422-.793.855-1.566 1.298-2.339 5.645 4.821 10.312 10.539 13.691 16.885 1.226 2.308 3.688 3.462 6.14 3.462s4.914-1.154 6.14-3.462c10.673-20.017 34.099-33.821 61.182-33.481 35.212.422 64.86 26.218 65.406 56.877.01.546-.062 1.082-.103 1.617 2.957-.392 6.655-.701 9.601-.701 31.41 0 56.887 22.19 56.887 49.552 0 9.066-2.843 17.544-7.726 24.848 30.596.814 55.135 22.623 55.135 49.47 0 12.733-5.532 24.333-14.598 33.11 16.234 13.917 24.074 31.832 24.074 49.479 0 30.576-23.9 56.187-56.289 63.707z" fill="#dd62c6"/><g fill="#dd62c6"><path d="m112.891 210.958h64.005v15h-64.005z"/><path d="m112.891 281.958h63.928v15h-63.928z"/><path d="m335.104 210.958h64.005v15h-64.005z"/><path d="m335.181 281.958h63.928v15h-63.928z"/><path d="m284 110.849h15v64.005h-15z"/><path d="m213 110.849h15v63.928h-15z"/><path d="m284 333.062h15v64.005h-15z"/><path d="m213 333.139h15v63.928h-15z"/></g><path d="m350.962 342.362c-.397 3.464-3.123 6.199-6.587 6.596-5.102.584-13.365 1.445-24.134 2.28-33.331 2.559-90.654 4.826-152.566-2.293-3.479-.4-6.221-3.141-6.621-6.621-9.414-81.916-2.408-155.792-.015-176.691.397-3.469 3.127-6.2 6.596-6.597 18.835-2.157 80.709-8.061 152.725-2.309 7.899.629 15.922 1.4 24.021 2.331 3.459.397 6.168 3.154 6.565 6.613 9.415 81.915 2.409 155.791.016 176.691z" fill="#6cf4cd"/><path d="m344.374 348.958c-5.102.584-13.365 1.445-24.134 2.28 0 0 12.25-95.54.12-194.51 7.899.629 15.922 1.4 24.021 2.331 3.459.397 6.168 3.154 6.565 6.613 9.414 81.915 2.408 155.791.015 176.69-.396 3.464-3.123 6.199-6.587 6.596z" fill="#36ddbd"/><path d="m304.29 205.708c-7.41-.46-14.68-.79-21.78-1.01-28.97-.93-54.92-.1-74.71 1.1-1.49 24.64-2.42 58.82-.09 96.49 27.56 1.7 53.25 1.66 74.71.93 7.87-.26 15.17-.62 21.78-1.02 1.49-24.64 2.42-58.82.09-96.49z" fill="#edf8f9"/><path d="m304.29 205.708c-7.41-.46-14.68-.79-21.78-1.01 1.94 38 1.22 72.57-.09 98.52 7.87-.26 15.17-.62 21.78-1.02 1.49-24.64 2.42-58.82.09-96.49z" fill="#daeeef"/><g fill="#fff"><circle cx="108.053" cy="218.498" r="15"/><circle cx="108.053" cy="289.498" r="15"/><circle cx="404.27" cy="218.498" r="15"/><circle cx="404.27" cy="289.498" r="15"/><circle cx="291.661" cy="105.889" r="15"/><circle cx="220.661" cy="105.889" r="15"/><circle cx="291.661" cy="402.107" r="15"/><circle cx="220.661" cy="402.107" r="15"/></g><g fill="#d8e9ea"><circle cx="238.5" cy="237.501" r="7.5"/><circle cx="238.5" cy="270.501" r="7.5"/><ellipse cx="273.5" cy="270.501" rx="7.501" ry="7.5" transform="matrix(1 -.009 .009 1 -2.539 2.592)"/><circle cx="273.5" cy="237.501" r="7.5"/><circle cx="238.5" cy="237.501" r="7.5"/><ellipse cx="238.5" cy="270.501" rx="7.501" ry="7.5" transform="matrix(1 -.009 .009 1 -2.449 2.179)"/><ellipse cx="273.5" cy="237.501" rx="7.5" ry="7.501" transform="matrix(.009 -1 1 .009 33.43 508.748)"/><ellipse cx="273.5" cy="270.501" rx="7.5" ry="7.501" transform="matrix(.009 -1 1 .009 .432 541.437)"/></g></g></svg>