<svg height="720pt" viewBox="0 0 512 512" width="1080pt" xmlns="http://www.w3.org/2000/svg"><path d="m256 302c-17.09375 0-31-13.90625-31-31h-30c0 33.636719 27.363281 61 61 61s61-27.363281 61-61h-30c0 17.09375-13.90625 31-31 31zm0 0"/><path d="m195 208h30v30h-30zm0 0"/><path d="m287 208h30v30h-30zm0 0"/><path d="m256 112.5c-79.125 0-143.5 64.375-143.5 143.5s64.375 143.5 143.5 143.5 143.5-64.375 143.5-143.5-64.375-143.5-143.5-143.5zm0 257c-62.585938 0-113.5-50.914062-113.5-113.5s50.914062-113.5 113.5-113.5 113.5 50.914062 113.5 113.5-50.914062 113.5-113.5 113.5zm0 0"/><path d="m512 308.296875v-104.59375l-46.3125-9.261719c-4.394531-15.003906-10.382812-29.464844-17.886719-43.183594l26.195313-39.296874-73.957032-73.960938-39.296874 26.199219c-13.71875-7.503907-28.179688-13.496094-43.183594-17.890625l-9.261719-46.308594h-104.59375l-9.261719 46.3125c-15.003906 4.394531-29.464844 10.382812-43.183594 17.886719l-39.296874-26.199219-73.960938 73.960938 26.199219 39.296874c-7.503907 13.71875-13.496094 28.179688-17.890625 43.183594l-46.308594 9.261719v104.59375l46.3125 9.261719c4.394531 15.003906 10.382812 29.464844 17.886719 43.183594l-26.199219 39.296874 73.960938 73.960938 39.296874-26.199219c13.71875 7.503907 28.179688 13.496094 43.183594 17.890625l9.261719 46.308594h104.59375l9.261719-46.3125c15.003906-4.394531 29.464844-10.382812 43.183594-17.886719l39.296874 26.195313 73.960938-73.957032-26.199219-39.296874c7.503907-13.71875 13.496094-28.179688 17.890625-43.183594zm-70.667969-16.460937-2.273437 9.261718c-4.542969 18.507813-11.851563 36.152344-21.730469 52.449219l-4.941406 8.15625 23.007812 34.515625-39.175781 39.175781-34.515625-23.007812-8.15625 4.941406c-16.296875 9.878906-33.941406 17.1875-52.449219 21.730469l-9.261718 2.273437-8.132813 40.667969h-55.40625l-8.132813-40.667969-9.261718-2.273437c-18.507813-4.542969-36.152344-11.851563-52.449219-21.730469l-8.15625-4.941406-34.515625 23.007812-39.175781-39.175781 23.007812-34.515625-4.941406-8.15625c-9.878906-16.296875-17.1875-33.941406-21.730469-52.449219l-2.273437-9.261718-40.667969-8.132813v-55.40625l40.667969-8.132813 2.273437-9.261718c4.542969-18.507813 11.851563-36.152344 21.730469-52.449219l4.941406-8.15625-23.007812-34.515625 39.175781-39.175781 34.515625 23.007812 8.15625-4.941406c16.296875-9.878906 33.941406-17.1875 52.449219-21.730469l9.261718-2.273437 8.132813-40.667969h55.40625l8.132813 40.667969 9.261718 2.273437c18.507813 4.542969 36.152344 11.851563 52.449219 21.730469l8.15625 4.941406 34.515625-23.007812 39.175781 39.175781-23.007812 34.515625 4.941406 8.15625c9.878906 16.296875 17.1875 33.941406 21.730469 52.449219l2.273437 9.261718 40.667969 8.132813v55.40625zm0 0"/></svg>